<?xml version="1.0" encoding="utf-8"?>
<!-- Generator: Adobe Illustrator 26.0.3, SVG Export Plug-In . SVG Version: 6.00 Build 0)  -->
<svg version="1.1" id="Capa_1" xmlns="http://www.w3.org/2000/svg" xmlns:xlink="http://www.w3.org/1999/xlink" x="0px" y="0px"
	 viewBox="0 0 425.2 425.2" style="enable-background:new 0 0 425.2 425.2;" xml:space="preserve">
<style type="text/css">
	.st0{fill:#FFFFFF;}
	.st1{fill:none;}
	.st2{enable-background:new    ;}
</style>
<g>
	<g>
		<path class="st0" d="M227.7,63.4c-82.4,0-149.2,66.8-149.2,149.2c0,28.1,7.8,54.4,21.3,76.8c-3.6,18.8-13.6,47.9-42.3,59.7
			c0,0,54.3,5.8,89.6-11.1c23.3,15,50.9,23.7,80.6,23.7c82.4,0,149.2-66.8,149.2-149.2C376.9,130.2,310.1,63.4,227.7,63.4z"/>
	</g>
</g>
<rect x="106" y="171.1" class="st1" width="242" height="83"/>
<g class="st2">
	<path d="M122.7,192.1c-0.2,0-0.4,0-0.6-0.1c-2.3-0.7-4.5-1-6.7-1c-1.1,0-2.3,0.1-3.7,0.3s-2.8,0.5-4.3,0.9c0.1,0.9,0.2,1.6,0.2,2.1
		c0,1.9-0.1,4.5-0.3,7.8l9-0.9c2.6-0.3,4.3-0.4,4.9-0.4s1.1,0.2,1.5,0.6s0.6,0.9,0.6,1.5c0,1.2-0.6,1.9-1.9,2.1l-4.9,0.4l-9.5,0.9
		c-0.1,1-0.1,1.9-0.1,2.8c0,0.9-0.1,1.7-0.1,2.4c0,3,0.2,4.8,0.7,5.3c0.3,0.4,1.4,0.6,3.2,0.6c0.8,0,2.1,0,3.8-0.1s3-0.1,3.8-0.1
		c0.3,0,0.7,0,1.2-0.1s0.9-0.1,1.2-0.1c1.4,0,2.2,0.7,2.2,2.1c0,1.1-0.6,1.8-1.7,2.1c-1.3,0.3-4.1,0.4-8.3,0.4c-4.2,0-7-0.6-8.2-1.7
		c-1.3-1.2-2-4-2-8.4c0-0.9,0-1.8,0.1-2.9s0.1-2.2,0.2-3.4c-0.2-0.3-0.2-0.6-0.2-1c0-0.5,0.1-0.9,0.4-1.3c0.3-4,0.4-6.9,0.4-8.8
		c0-0.5-0.1-1.2-0.2-2.2s-0.2-1.7-0.2-2.2c0-1.6,0.7-2.4,2.1-2.4c0.6,0,1.1,0.2,1.5,0.6c1.6-0.4,3.2-0.8,4.6-1s2.8-0.3,4.1-0.3
		c3.3,0,6,0.4,8,1.2c0.9,0.4,1.4,1,1.4,2c0,0.5-0.2,1-0.5,1.5C123.8,191.9,123.3,192.1,122.7,192.1z"/>
	<path d="M144.8,204.5c-0.1,1.7-0.8,2.6-2.1,2.6c-1.2,0-1.8-0.7-1.8-2c0-0.3,0-0.7-0.1-1.4l-0.1-1.7c-2.2,0.3-3.9,0.9-5.2,1.8
		c-1.2,0.9-2.2,2.2-3,4l0,11.2c0,1.4-0.7,2.1-2,2.1c-1.2,0-1.8-0.7-1.8-2.1v-14.4c0-0.5,0-1.1,0.1-2s0.1-1.6,0.1-2
		c0-1.4,0.6-2.1,1.8-2.1c1.3,0,2,1.1,2,3.4c2.6-2.5,5.5-3.8,8.7-3.8c1.1,0,1.9,0.4,2.5,1.3s0.8,2.1,0.8,3.8
		C144.9,203.8,144.9,204.3,144.8,204.5z"/>
	<path d="M158.6,220.6c-3.1,0-5.6-0.8-7.5-2.3c-2.1-1.7-3.1-4.1-3.1-7.2c0-3.6,0.9-6.5,2.6-8.9c1.9-2.6,4.4-3.9,7.5-3.9
		c2.3,0,4.1,0.4,5.6,1.1c1.8,0.9,2.6,2.4,2.6,4.3c0,1.4-0.8,2.6-2.3,3.7c-0.7,0.5-2.1,1.3-4.3,2.3l-7.8,3.7c0.8,1.1,1.7,2,2.9,2.6
		s2.5,0.9,4,0.9c0.9,0,2.1-0.2,3.3-0.5c1.6-0.5,2.7-1,3.1-1.8c0.5-0.7,1-1.1,1.5-1.1c0.5,0,0.9,0.2,1.3,0.5s0.6,0.8,0.6,1.3
		c0,1.5-1.2,2.8-3.7,3.9C162.7,220.2,160.6,220.6,158.6,220.6z M158.1,202c-1.7,0-3.1,0.6-4.2,1.9c-1.1,1.3-1.9,3.2-2.5,5.8l6.3-3
		c2.5-1.2,4.2-2.2,5.3-3.1C161.9,202.5,160.2,202,158.1,202z"/>
	<path d="M185.9,203.9c-0.8,0-1.3-0.3-1.6-0.8c-0.2-0.4-0.4-1.1-0.5-2.2c-1,0.3-2.6,0.7-4.7,1.4c-2.2,0.9-3.3,2-3.3,3.2
		c0.4,0.2,0.8,0.3,1.2,0.3c3.1,0.6,5.5,1.3,7,2.3c2.2,1.4,3.3,3.5,3.3,6.2c0,2.2-1,3.9-2.9,5c-1.6,0.9-3.6,1.4-6.1,1.4
		c-1.8,0-3.5-0.3-5.1-0.9c-2.1-0.8-3.2-1.8-3.2-3.2c0-0.5,0.2-1,0.6-1.4s0.9-0.6,1.5-0.6c0.4,0,1,0.3,1.6,1c0.3,0.3,1.1,0.6,2.2,0.8
		c0.9,0.2,1.7,0.2,2.3,0.2c1.1,0,2.2-0.1,3-0.4c1.3-0.4,1.9-1,1.9-1.9c0-1.9-1.3-3.1-3.9-3.8l-2.1-0.5c-1.8-0.4-3.1-0.9-3.9-1.4
		c-1.1-0.8-1.7-1.9-1.7-3.5c0-2.9,1.3-4.9,4-6.1c0.8-0.4,2.1-0.8,3.9-1.3c1.8-0.5,3.1-0.9,3.9-1.3c0.6-0.2,1.2-0.4,1.8-0.4
		c0.6,0,1.1,0.2,1.4,0.6s0.6,0.9,0.6,1.5c0,0.4,0.1,1,0.3,1.7s0.3,1.3,0.3,1.7c0,0.6-0.2,1.1-0.6,1.5S186.5,203.9,185.9,203.9z"/>
	<path d="M221.8,207.7c0,1,0,2.5,0,4.4s0,3.4,0,4.4c0,0.3,0,0.8,0.1,1.4s0.1,1.1,0.1,1.4c0,0.6-0.2,1.1-0.6,1.4s-0.9,0.6-1.5,0.6
		c-1.1,0-1.7-0.6-2-1.9c-1.7,0.9-3.7,1.3-5.9,1.3c-1.8,0-3.3-0.4-4.5-1.2c-1.3-0.9-2.1-2.2-2.3-3.8c-0.5-3.6-0.8-6.8-0.8-9.7
		c0-1.9,0.2-4,0.6-6.4c0.2-1.2,0.8-1.8,1.9-1.8c0.6,0,1.1,0.2,1.5,0.6s0.6,0.9,0.6,1.4c0,0.6-0.1,1.6-0.3,3s-0.3,2.4-0.3,3.2
		c0,2.3,0.1,4.2,0.2,5.9s0.4,2.9,0.7,3.9c0.5,0.2,0.9,0.4,1.3,0.6s0.9,0.2,1.3,0.2c1.8,0,3.8-0.3,5.8-0.9l0-4.2l0-4
		c0-3,0.1-5.5,0.4-7.7c0.2-1.3,0.8-1.9,2-1.9c0.6,0,1.1,0.2,1.5,0.6s0.6,0.9,0.6,1.4L221.8,207.7z"/>
	<path d="M242.6,221.2c-1.2,0-1.8-0.6-2-1.9l-0.6-4.5c-0.2-1.6-0.3-3.1-0.3-4.5c0-0.4,0-1,0.1-1.9s0.1-1.6,0.1-1.9
		c0-3-0.5-4.4-1.6-4.4c-1.5,0-3,0.9-4.4,2.7c-1.3,1.7-2.2,3.7-3,6.3c0,0.5-0.1,1.2-0.2,2c-0.1,0.7-0.1,1.3-0.1,2c0,0.4,0,1,0.1,1.8
		s0.1,1.4,0.1,1.8c0,0.6-0.2,1.1-0.6,1.5s-0.9,0.6-1.4,0.6c-0.6,0-1.1-0.2-1.5-0.6s-0.6-0.9-0.6-1.5c0-0.4,0-1-0.1-1.8
		s-0.1-1.4-0.1-1.8c0-1.4,0.1-3.4,0.3-5.9s0.3-4.4,0.3-5.9c0-0.4,0-1.1-0.1-1.9s-0.1-1.5-0.1-1.9c0-0.6,0.2-1.1,0.6-1.4
		s0.9-0.6,1.4-0.6c1.3,0,1.9,0.9,2.1,2.7l0.1,2.4c2.3-3.1,4.7-4.6,7.1-4.6c2.2,0,3.7,1,4.6,2.9c0.6,1.3,0.9,3.2,1,5.7v2.1l0,1.9
		c0,1.1,0.1,2.6,0.4,4.4c0.3,1.8,0.4,3.3,0.4,4.4c0,0.6-0.2,1.1-0.6,1.5C243.7,221,243.2,221.2,242.6,221.2z"/>
	<path d="M268,224.5c0-1.6-0.2-5.7-0.7-12.3l-0.7-11.3c0-0.7,0.2-1.3,0.6-1.8s0.9-0.8,1.5-0.8c0.5,0,0.9,0.2,1.4,0.5s0.7,0.7,0.7,1
		l0.7,11.8l0.6,12.6c0,1.9-0.6,3.6-1.7,5.2c-1.2,1.7-2.7,2.5-4.5,2.5c-2.9,0-5.4-2.3-7.4-6.8c-0.2-0.4-0.2-0.7-0.2-1
		c0-0.5,0.2-1,0.6-1.4s0.9-0.6,1.5-0.6c0.8,0,1.6,0.9,2.5,2.7c0.2,0.5,0.6,1.1,1.1,2c0.5,0.7,1.1,1,1.8,1c0.6,0,1.1-0.5,1.5-1.4
		C267.7,225.8,267.9,225.1,268,224.5z M268.2,193.8c-0.7,0-1.2-0.2-1.7-0.7s-0.7-1-0.7-1.7c0-0.7,0.2-1.2,0.7-1.7s1-0.7,1.7-0.7
		s1.2,0.2,1.7,0.7s0.7,1,0.7,1.7c0,0.6-0.2,1.2-0.7,1.7S268.8,193.8,268.2,193.8z"/>
	<path d="M294.4,221.1c-0.3,0-0.7-0.3-1.4-0.9c-0.6-0.6-1.1-1.1-1.4-1.5c-1.3,0.7-2.5,1.2-3.5,1.6c-1,0.4-1.8,0.5-2.5,0.5
		c-3.2,0-5.5-0.9-7-2.7c-1.4-1.7-2.1-4.3-2.1-7.8c0-3.3,1.1-6.1,3.4-8.5s5-3.5,8.2-3.5c1.2,0,2.5,0.3,4,0.9c1.9,0.8,2.8,1.7,2.8,2.8
		c0,0.4-0.1,0.7-0.4,1c-0.1,0.5-0.2,1.4-0.3,2.6s-0.1,2.7-0.1,4.6c0,1.7,0.1,3,0.3,4c0.1,0.6,0.6,1.8,1.3,3.6
		c0.1,0.2,0.3,0.6,0.5,1.1l0.1,0.3c0,0.5-0.2,1-0.6,1.4S294.9,221.1,294.4,221.1z M290.1,206.8c0-0.6,0-1.2,0.1-1.9s0.2-1.4,0.3-2.2
		c-0.5-0.3-0.9-0.5-1.3-0.6s-0.7-0.2-0.9-0.2c-2.1,0-3.9,0.9-5.5,2.6s-2.3,3.7-2.3,6c0,2.2,0.4,3.9,1.2,5s2,1.7,3.6,1.7
		c1.3,0,2.4-0.2,3.3-0.7c0.5-0.3,1.2-0.8,2.1-1.6C290.4,211.3,290.1,208.6,290.1,206.8z"/>
	<path d="M309.5,220.6c-2.1,0-4-0.4-5.7-1.2c-0.4,0.7-1,1-1.6,1c-0.5,0-1-0.2-1.3-0.5c-0.4-0.4-0.5-0.8-0.5-1.4c0-0.4,0-0.9,0.1-1.6
		s0.1-1.2,0.1-1.6c0-1.4,0-3.6-0.1-6.5c-0.1-2.9-0.1-5.1-0.1-6.5c0-1,0-2.9,0-5.7s0-4.7,0-5.7c0-0.8,0.2-1.6,0.5-2.2
		c0.5-0.8,1.1-1.3,1.9-1.3c1,0,1.5,0.6,1.5,1.8c0,0.2,0,0.5-0.1,0.8s-0.1,0.6-0.1,0.8l-0.1,4.5l0,5.2c1.2-0.8,2.3-1.4,3.4-1.8
		s2.1-0.6,3-0.6c2.9,0,5.3,1.1,7.2,3.4c1.7,2.1,2.6,4.7,2.6,7.8c0,3.1-1,5.8-3,7.9S312.4,220.6,309.5,220.6z M310.2,202
		c-1.1,0-2.3,0.3-3.4,0.9c-0.6,0.3-1.6,1-3,2l0,3.5l0,3.2l0,3.4c0.7,0.3,1.6,0.7,2.8,1.1c0.8,0.3,1.8,0.4,2.9,0.4
		c2,0,3.6-0.7,4.9-2.1s1.9-3.1,1.9-5.2c0-2-0.5-3.7-1.5-5.1C313.6,202.8,312.1,202,310.2,202z"/>
	<path d="M340.8,221.1c-0.3,0-0.7-0.3-1.4-0.9c-0.6-0.6-1.1-1.1-1.4-1.5c-1.3,0.7-2.5,1.2-3.5,1.6c-1,0.4-1.8,0.5-2.5,0.5
		c-3.2,0-5.5-0.9-7-2.7c-1.4-1.7-2.1-4.3-2.1-7.8c0-3.3,1.1-6.1,3.4-8.5s5-3.5,8.2-3.5c1.2,0,2.5,0.3,4,0.9c1.9,0.8,2.8,1.7,2.8,2.8
		c0,0.4-0.1,0.7-0.4,1c-0.1,0.5-0.2,1.4-0.3,2.6s-0.1,2.7-0.1,4.6c0,1.7,0.1,3,0.3,4c0.1,0.6,0.6,1.8,1.3,3.6
		c0.1,0.2,0.3,0.6,0.5,1.1l0.1,0.3c0,0.5-0.2,1-0.6,1.4S341.3,221.1,340.8,221.1z M336.5,206.8c0-0.6,0-1.2,0.1-1.9s0.2-1.4,0.3-2.2
		c-0.5-0.3-0.9-0.5-1.3-0.6s-0.7-0.2-0.9-0.2c-2.1,0-3.9,0.9-5.5,2.6s-2.3,3.7-2.3,6c0,2.2,0.4,3.9,1.2,5s2,1.7,3.6,1.7
		c1.3,0,2.4-0.2,3.3-0.7c0.5-0.3,1.2-0.8,2.1-1.6C336.8,211.3,336.5,208.6,336.5,206.8z"/>
	<path d="M351.5,203.6l-0.3,10.2c0,1.1-0.1,2.7-0.2,4.8c-0.1,1.4-0.8,2.1-2,2.1c-1.3,0-2-0.7-2-2.1c0-1.7,0.1-4.1,0.2-7.5
		s0.2-5.8,0.2-7.5c0-2.2,0-4.6,0.1-7.4c0.1-2.8,0.1-5.3,0.1-7.4c0-1.4,0.7-2.1,2-2.1c1.4,0,2,0.7,2,2.1c0,2.2,0,4.6-0.1,7.4
		C351.5,198.9,351.5,201.4,351.5,203.6z"/>
	<path d="M358.8,195.4c-0.5,0-0.9-0.2-1.3-0.6s-0.6-0.8-0.6-1.3c0-0.5,0.2-0.9,0.6-1.3c0.6-0.6,1.5-1.7,2.7-3.3
		c0.9-1.2,1.9-2.2,3-2.9c0.4-0.3,0.7-0.4,1.1-0.4c0.5,0,0.9,0.2,1.3,0.6c0.4,0.4,0.6,0.8,0.6,1.3c0,0.5-0.3,1-0.8,1.4
		c-1,0.8-1.9,1.8-2.8,3c-0.9,1.3-1.8,2.3-2.6,3C359.6,195.2,359.2,195.4,358.8,195.4z M362.6,210.4c0,0.8,0,2,0.1,3.7
		s0.1,2.9,0.1,3.7c0,0.6-0.2,1.1-0.6,1.5s-0.9,0.6-1.5,0.6c-0.6,0-1.1-0.2-1.4-0.6s-0.6-0.9-0.6-1.5c0-0.8,0-2-0.1-3.7
		s-0.1-2.9-0.1-3.7c0-1.3,0.1-2.9,0.2-4.8s0.2-3.5,0.2-4.8c0-0.6,0.2-1.1,0.6-1.5s0.9-0.6,1.4-0.6s1.1,0.2,1.4,0.6s0.6,0.9,0.6,1.5
		c0,1.3-0.1,2.9-0.2,4.8S362.6,209.1,362.6,210.4z"/>
</g>
<g class="st2">
	<path d="M212.1,264.8c0,0.5-0.2,0.9-0.6,1.3c-0.4,0.4-0.8,0.5-1.3,0.5c-0.5,0-1.1-0.4-1.6-1.1c-0.5-0.7-0.8-1.3-0.8-1.8
		c0-0.5,0.2-0.9,0.6-1.3s0.8-0.5,1.3-0.5c0.5,0,1.1,0.4,1.6,1.1C211.9,263.7,212.1,264.3,212.1,264.8z M212.1,234.2V257
		c0,1.2-0.6,1.8-1.8,1.8s-1.8-0.6-1.8-1.8c0-0.6,0-1.4-0.1-2.5c0-1.1-0.1-1.9-0.1-2.5c0-2,0-5,0.1-8.9c0-4,0.1-6.9,0.1-8.9
		c0-1.2,0.6-1.8,1.8-1.8S212.1,233,212.1,234.2z"/>
	<path d="M222.1,264.8c0,0.5-0.2,0.9-0.6,1.3c-0.4,0.4-0.8,0.5-1.3,0.5c-0.5,0-1.1-0.4-1.6-1.1c-0.5-0.7-0.8-1.3-0.8-1.8
		c0-0.5,0.2-0.9,0.6-1.3s0.8-0.5,1.3-0.5c0.5,0,1.1,0.4,1.6,1.1C221.8,263.7,222.1,264.3,222.1,264.8z M222.1,234.2V257
		c0,1.2-0.6,1.8-1.8,1.8s-1.8-0.6-1.8-1.8c0-0.6,0-1.4-0.1-2.5c0-1.1-0.1-1.9-0.1-2.5c0-2,0-5,0.1-8.9c0-4,0.1-6.9,0.1-8.9
		c0-1.2,0.6-1.8,1.8-1.8S222.1,233,222.1,234.2z"/>
</g>
</svg>
